<svg xmlns="http://www.w3.org/2000/svg"><symbol id="velociraptornone" viewBox="0 0 256 256"><path d="M132.9 150.2c-.3 0-.5.2-.5.6-.4 0-.5.2-.5.5s.1.6.5.6.4-.2.4-.6h.1a.5.5 0 0 0 .5-.5c0-.4-.2-.6-.5-.6zm1.4-.8a2.4 2.4 0 0 0-.9.8h.3l1.2-.3a3 3 0 0 0 .8-.8h-.3a2.3 2.3 0 0 0-1.1.3zm3-2.5c-.2 0-.4.1-.4.5h-.1c-.3 0-.4.2-.4.6h-.1c-.4 0-.5.2-.5.6s.1.5.5.5.4-.2.4-.5h.1c.3 0 .5-.2.5-.6a.5.5 0 0 0 .6-.6c0-.4-.2-.5-.6-.5zm23.2-5.9l-1.3 1.4c.3.5.5.9.8 1a2.2 2.2 0 0 0 1.2.2 2 2 0 0 0 1.4-.5 4 4 0 0 0 1-1.2 10 10 0 0 0 .8-1.4c.2-.6.4-1.2.5-1.2h-3.4c-.2 0-.5 1.1-1 1.7z"/><path d="M128.3.5A126.7 126.7 0 1 0 255 127.2 126.6 126.6 0 0 0 128.3.5zm95 75.1a4.2 4.2 0 0 1-1.5.4h-3.7l-5.2 1.2a15.4 15.4 0 0 0-3.6 1.6 7.6 7.6 0 0 0-2.5 2.2 11.9 11.9 0 0 0-1.8 2.9 40.4 40.4 0 0 0-1.5 3.9c-.4 1.5-1 3.1-1.6 5s-.8 2.4-1.2 3.4a30.5 30.5 0 0 1-1.3 3.2 29.2 29.2 0 0 1-1.4 3.1 26.8 26.8 0 0 1-1.8 3.3 39.4 39.4 0 0 1-2.6 4c-1 1.3-1.9 2.5-3 3.7l-3 3.5c-1.1 1.2-2.1 2.5-3.1 3.8a8.7 8.7 0 0 0-1.4 2.7 18.6 18.6 0 0 1-1 2.5 8 8 0 0 1-1.3 2.2 5.7 5.7 0 0 1-2.5 1.6 4 4 0 0 1-1.3.6l-2 .7-2.1.6-1.3.4a2.8 2.8 0 0 1 .1 2 1.8 1.8 0 0 1-.8.9l-1.2.6a1.3 1.3 0 0 0-.9 1l-2.3 6.7a2.5 2.5 0 0 1-1 1.5 4.9 4.9 0 0 1-1.8.8 12.3 12.3 0 0 1-2 .2 9.7 9.7 0 0 1-1.8-.1h-.9c-.5 0-.8.2-1.1 0s-.4-.3-.4-.8 0-.3.1-.4l.2-.3.3-.2v-.4c0-.1 0-.1-.1-.1v-.2a26 26 0 0 0-3.4 1.6l-3.3 2.1-3.4 2.1a29 29 0 0 1-3.3 2l-.9.5-1.1.5-1 .8a1.6 1.6 0 0 0-.5 1.1v.5l1.8 1.6 1.9 1.8 2 1.6 2.1 1.2 1.8.7 2 .5 1.9.6 1.6 1a6.2 6.2 0 0 1 1.4 1.4l1.1 1.5a13.4 13.4 0 0 0 1.3 1.6 6.4 6.4 0 0 0 1.5 1.3l1.6.6a16.6 16.6 0 0 1 2.1.6 7.7 7.7 0 0 1 1.8 1 2.2 2.2 0 0 1 .7 1.7v.5l-5.6 1.2-1.1.4-1.1.2h-.6l-1.1-.6-1.7-1.1a9.5 9.5 0 0 1-1.7-1l-1.1-.7-.2-.2-.3-.5-.3-.6-.3-.4-2.2-4.5-1.2-.4-1.8-.8-2.1-.9-2.1-1-1.8-.8-1.1-.6a16.4 16.4 0 0 1-2.8-1.6 17.1 17.1 0 0 1-2.6-2.1 10.5 10.5 0 0 1-2-2.7 6.7 6.7 0 0 1-1-3.1l-.6.2-.6.4-.9.6-1.7 1.2-2.1 1.4-2.1 1.3-1.7 1.1-1 .5-5.9 3.6a20.3 20.3 0 0 0-4.6 3.4 17.3 17.3 0 0 0-3.7 4.4c-.9 1.7-.7 3.9-2.3 6.6v.6c-.1.2 0 .4 0 .5v.5a10.5 10.5 0 0 0 1.1 4.4 7.5 7.5 0 0 0 2.1 2.5 9.7 9.7 0 0 0 2.6 1.5l2.6.9a9.3 9.3 0 0 1 2 1 5.3 5.3 0 0 1 .8 2h-13.3l-.2-.4c-.1-.2-.2-.1-.4-.2h-.5l-.6-.4a2.3 2.3 0 0 1-1.2-1.5 7.9 7.9 0 0 1-.5-2.2 19.5 19.5 0 0 1 .2-2.3c0-.8.3-1.4.3-2V180a4.5 4.5 0 0 1 .3-1.7c.2-.8.3-1.7.5-2.7s.5-2 .8-3.2.6-2.1.8-3.1.5-1.9.7-2.7.3-1.3.4-1.7.4-1.4.6-2l1-1.9a13 13 0 0 0 4.5-2.6 33.4 33.4 0 0 0 3.3-3.2l2.9-3.5a14.3 14.3 0 0 1 3.4-3 3.7 3.7 0 0 1 1.4-.7 10.2 10.2 0 0 1 2.1-.8l2.3-1a10.3 10.3 0 0 0 2.1-1.1 7.5 7.5 0 0 0 1.6-1.3 2.5 2.5 0 0 0 .6-1.6v-1.3a1.7 1.7 0 0 0-.6-1.2l-.8-.3-1.2-.5-1.2-.6-.7-.3-2.1-1.2-2.6-1.9a25.6 25.6 0 0 0-2.5-1.6 3 3 0 0 0-1.8-.5h-7.8c-6 0-11.9-.1-17.6.1s-11.7.2-17.7.2c-4.3 0-8.6-.2-12.8-.4a98.4 98.4 0 0 1-12.3-1.4 70 70 0 0 1-12-2.9 65.3 65.3 0 0 1-11.7-5l-1.5-.7-1.5-1a4 4 0 0 1-1.3-1.3 2.5 2.5 0 0 1-.6-1.6 5.9 5.9 0 0 1 2.1.4l2.4.9 2.2 1 1.5.6c1.5.6 3 1.2 4.7 1.7l5 1.4a30.6 30.6 0 0 0 5.1 1 27.4 27.4 0 0 0 4.8.4H73l2.5-.4 3.4-.5 3.6-.6 3.4-.6 2.7-.6 6.9-1.3c2.4-.5 4.8-1 7.3-1.7l7.2-2a50.4 50.4 0 0 0 6.6-2.8l3.8-1.8 3.8-1.6a26.7 26.7 0 0 1 4-1.3 25.9 25.9 0 0 1 4.2-.9l.9-.2h3.6l1-.2 1.9-.3 3.4-.8 4-.9 4-.9c1.3-.3 2.4-.9 3.3-1.1s1.6-.7 1.9-.7h6.6c2.7 0 5.3.5 7.9.7s5.1.5 7.8.5a10 10 0 0 0 5-1.2 21 21 0 0 0 4.5-3.5 33.3 33.3 0 0 0 3.9-5 62.2 62.2 0 0 0 3.2-5.6 55.3 55.3 0 0 0 2.6-5.6c.7-1.8 1.3-3.4 1.7-4.8s.8-2.3 1.2-3.4a22.6 22.6 0 0 1 1-3.1 11.1 11.1 0 0 1 1.2-2.7 6.1 6.1 0 0 1 1.7-1.9 7.6 7.6 0 0 1 2.6-1.6 13.4 13.4 0 0 1 3.8-.8h3.1c.7 1.6 1.7.9 2.9 1.3a38.8 38.8 0 0 1 3.6 1.5 21.6 21.6 0 0 1 3 1.8 2.9 2.9 0 0 1 1.2 2.2 2.6 2.6 0 0 1-.4 1.4 2.5 2.5 0 0 1-1.2.4z"/></symbol><symbol id="micropachycephalosaurusnone" viewBox="0 0 256 256"><path d="M127.7 0a127.7 127.7 0 1 0 127.6 127.7A127.7 127.7 0 0 0 127.7 0zm110.4 116.5h-7.4c-3.1 0-6.2-.1-9.2-.4l-9.1-1-9.2-.9c-3-.3-6.1-.5-9.2-.5a130 130 0 0 0-16.4 1 77.2 77.2 0 0 0-15.8 3.7l-30.7 11.1a2.4 2.4 0 0 0-1.2 1.6 17.3 17.3 0 0 0-.8 2.7c-.3 1-.5 1.9-.7 2.9a5.3 5.3 0 0 1-.6 1.9 3.1 3.1 0 0 0 1.4 1.4l2.5 1.1 2.9 1.2a14.3 14.3 0 0 1 2.7 1.5 6.3 6.3 0 0 1 2.1 1.8 3.8 3.8 0 0 1 .8 2.5 1.6 1.6 0 0 1-.4 1.2 6 6 0 0 1-1.3.9l-1.6.7-1.6.8a4.3 4.3 0 0 0-1.2 1.1 2.5 2.5 0 0 0-.5 1.5 3.7 3.7 0 0 0 .8 2.5 7.4 7.4 0 0 0 1.9 1.6l2.4 1.4a7.2 7.2 0 0 1 2.2 1.7 17.5 17.5 0 0 1 2 3.5 23.2 23.2 0 0 1 1.3 3.7c.3 1.2.6 2.5.8 3.8s.1 2.7.2 4l1.3 1.3v7.2h.9l1 .2 1 .2.6.2a5.5 5.5 0 0 0 .1.9 5.1 5.1 0 0 1-.2.9 2.8 2.8 0 0 1-.3 1.3 7 7 0 0 1-.6.9 1.1 1.1 0 0 1-.9.3h-5.2c-.2 0-.6-.5-1-.8l-1.5-.8-1.6-.8c-.5-.3-.9-.9-1.2-.9h-6.1a5.2 5.2 0 0 1 .6-3 4.1 4.1 0 0 1 1.7-1.5 6.5 6.5 0 0 1 2.1-.7l2.1-.3 1.6-.6a1.5 1.5 0 0 0 .7-1.4v-.3a.4.4 0 0 0-.1-.3 8.3 8.3 0 0 0-.8-1.8c-.4-.8-.8-1.6-1.3-2.4l-1.5-2.5a10 10 0 0 0-1.6-1.8 3.6 3.6 0 0 0-1.3-.8l-1.8-1a7.8 7.8 0 0 1-1.8-1.1 2.1 2.1 0 0 1-1-1.1c-.3-.8-.6-1.8-.9-2.9a30.1 30.1 0 0 0-1.1-3.2 6.9 6.9 0 0 0-1.7-2.6 4 4 0 0 0-2.9-1.1 24.9 24.9 0 0 0-6.1.8 23.5 23.5 0 0 0-5.7 2.3 24.5 24.5 0 0 0-5 3.4 21.7 21.7 0 0 0-4 4.6c-.1.2-.2.2-.3.2h-.2c-.1 0-.1-.1-.1-.2s-.2-.1-.2-.3l-.2-.6a1.1 1.1 0 0 0-.2-.6c0-.2-.1-.3-.1-.4h-.3a1.5 1.5 0 0 0-1.1.4l-.8 1.2-.9 1.3a2.1 2.1 0 0 1-.8 1 5.2 5.2 0 0 1-.7-1.6V166a9.2 9.2 0 0 1 .4-2.9c.2-.9.5-1.8.8-2.8a20 20 0 0 0 1-2.6c.2-.9.4-2.7.4-2.7h-4.9c0-1.7.2-1.8.6-2.4a6.5 6.5 0 0 1 1.7-1.6 6.7 6.7 0 0 1 2.1-.9l2.1-.3a15.1 15.1 0 0 1 3 .2l3 .5 2.9.4a14.2 14.2 0 0 0 2.9.2h2.3a2.4 2.4 0 0 0-1.7-1.4l-2.5-.5-2.7-.2c-.9 0-1.6.2-2.2-.2l-3.9-2.2h-.3a17.1 17.1 0 0 0-3.2 0 10.8 10.8 0 0 1-3.1.2 7.8 7.8 0 0 1-3.1-.7l-2.6-1.4-2.6-1.4a5.5 5.5 0 0 0-2.9-.6v6.1l1.6-.2 1-.3.9-.5c.3-.2.3-.4.8-.7h.7v2.8l2-.7c0 .1.2.3.2.5a4.3 4.3 0 0 0 .1.5 5.6 5.6 0 0 1-1.3 3.9A19 19 0 0 1 86 157a29.2 29.2 0 0 0-4.6-1.3l-4.8-.6V147l-1.7.6-2.1 1a10.5 10.5 0 0 0-1.9 1.2c-.5.4-1 .8-1 1.2v6.9a9.6 9.6 0 0 0 3-.3l1.9-.6 1.2-.6a2.4 2.4 0 0 1 1.2-.3h.4a2.6 2.6 0 0 0 .3.7c.1.4.3.8.4 1.3a6.5 6.5 0 0 1 .4 1.3 5.1 5.1 0 0 1 .2.9 4.3 4.3 0 0 1-.4 1.9 7.2 7.2 0 0 1-1.1 1.9 4.7 4.7 0 0 1-1.5 1.3 3.3 3.3 0 0 1-1.9.6h-1l-3-.4a22.1 22.1 0 0 1-3.7-.8 11.9 11.9 0 0 1-3.2-1.2 2.5 2.5 0 0 1-1.5-2.1v-11.8c0-.2.4-.4.9-.9a20.2 20.2 0 0 0 1.9-1.6l2.4-2.2a18.8 18.8 0 0 0 2.4-2.5 21.1 21.1 0 0 0 1.8-2.7 5.4 5.4 0 0 0 .7-2.6 4.3 4.3 0 0 0-1.1-2.8 16.4 16.4 0 0 0-2.9-2 18.3 18.3 0 0 0-3.2-1.4l-2.6-.9-1.3-9.2a16.8 16.8 0 0 0-.6-2.7 10.9 10.9 0 0 0-1.1-2.7 7.9 7.9 0 0 0-1.8-2.2 4 4 0 0 0-2.7-.9 12.5 12.5 0 0 0-3.6.5 13 13 0 0 0-3.2 1.5l-1.7 1-2.5 1.5-3 1.8-3 1.7-2.5 1.7c-.8.4-1.4 1.1-1.7 1.1h-1l-1.7-.2-2.1-.4a3.1 3.1 0 0 1-1.4-.7c-.5-.4-.4-.9-.4-1.4v-1.9c0-.6-.2-.9.1-.9h1.6s-.1-.1 0-.4.1-.5.1-.8.1-.6.2-.9a.4.4 0 0 0 0-.5l-.8-.8-.9-.5-.7-.7a1.7 1.7 0 0 1-.3-1.2 2.7 2.7 0 0 1 .3-1.2 7.5 7.5 0 0 1 .7-1.2c.3-.3.2-.6.6-.8a1.8 1.8 0 0 1 .8-.4v.8a4.7 4.7 0 0 0 .6 1.5c.1.5.6.7 1.2.7a1.4 1.4 0 0 0 1.1-.5 4.8 4.8 0 0 0 .9-1.1 11.1 11.1 0 0 0 .7-1.6c.1-.5.2.2.2-1.4H20.8a1.4 1.4 0 0 1-.9-.5l-1-.7-1-.8a1.8 1.8 0 0 1-.4-1 4.6 4.6 0 0 1 1.1-3.2 6.8 6.8 0 0 1 2.6-1.8 17 17 0 0 1 3.2-1l2.9-.9 2.2-.9 3.4-1.5 3.3-1.6a8.4 8.4 0 0 1 2.2-1.1h13.7a7.6 7.6 0 0 1 3.9 1 12.6 12.6 0 0 1 3.1 2.5 29.1 29.1 0 0 1 2.6 3.3 27.5 27.5 0 0 0 2.3 3.3 14.9 14.9 0 0 0 2.2 2.6 3.6 3.6 0 0 0 2.5 1c.4 0 .7-.1.8-.4a1.3 1.3 0 0 1 .9-.4 4 4 0 0 1 1.5.3l1.5.8 1.6.7a4 4 0 0 0 1.5.3l4.1-.2 4.2-.5 4.1-.5 4.1-.2a56.4 56.4 0 0 1 7.3.4 39.9 39.9 0 0 1 7.3 1.6 53.8 53.8 0 0 1 5.1 2l5.1 2.2a35 35 0 0 0 5.2 1.7 20.2 20.2 0 0 0 5.5.7h2.6L144 111c4.3-.9 8.6-1.6 12.9-2.3s8.6-1.2 13-1.6 8.7-.5 13.1-.5h8.9c1.9.1 3.6.7 5.1.9l36.5 7.3h11.8c-.8 0-1.8 1-3.1 1.4a28.2 28.2 0 0 1-4.1.3z"/></symbol><symbol id="brachiosaurusnone" viewBox="0 0 256 256"><path d="M58.7 166.9a38.7 38.7 0 0 0-7.7.8v.2c0 .3.3.6.8 1l2 1 2.6 1 2.9.8 2.4.6 1.4.3h2.2a10.1 10.1 0 0 0 2.5-.5l2.4-.8a5 5 0 0 0 1.7-1.5 28.5 28.5 0 0 0-6.4-2.2 30.8 30.8 0 0 0-6.8-.7z"/><path d="M128 0a127.7 127.7 0 1 0 127.7 127.7A127.7 127.7 0 0 0 128 0zm83.3 70.4v.4a9.5 9.5 0 0 1-.1 1.4c-.2.6-.2 1.3-.4 2.1l-.3 2.1a6.3 6.3 0 0 1-.3 1.3l-.9 1.8-.6 2-.6 2a11.8 11.8 0 0 1-.7 2l-1.7 3.1a21.1 21.1 0 0 0-1.6 3l-20 27.9-.3.5-.2.3-.4.3-.4.5-1.6 2.2-2.1 2.9-2.2 3.3c-.7 1.1-1.4 2.2-2 3.3a25.3 25.3 0 0 0-1.4 2.9 8.6 8.6 0 0 0-.5 2.4c0 .3-.2.5-.2.7s.2.4.2.7c-.2.1-.3.2-.3.4s.1.4.3.4v10.2a1.9 1.9 0 0 1-.3 1 5.6 5.6 0 0 1-.4 1.2 6.7 6.7 0 0 1-.6 1.2c-.1.4-.4.8-.4 1.1v1.7c0 .1.1.2 0 .4s-.2.5-.4.8l-.7.8c-.2.3-.6.4-.6.5v.4s.7.2.8.4.9.3.9.4v2.8a22.5 22.5 0 0 1-.6 3.6c-.2 1.2-.6 2.3-.8 3.5s-.5 2.3-.7 3.5-.3 2.4-.3 3.5.1 4.3.3 6.4a44.8 44.8 0 0 0 1.1 6.2 27.8 27.8 0 0 0 2.1 5.7 25.6 25.6 0 0 0 3.5 5.3l-1.3.8-1.7.7-1.7.5h-1.9l-1.1-.2-1.2-.3-.9-.2h-.8l-.7-.3-.7-.5-.3-.7a27.7 27.7 0 0 0 .1-4.1 31.1 31.1 0 0 0-.3-4.3c-.1-1.4-.3-2.8-.5-4.3s-.4-2.8-.5-4.1-.1-.3-.2-.6l-.3-.6c.1-1.1.1-2.3.2-3.7a26.8 26.8 0 0 0-.2-4 25.7 25.7 0 0 0-.6-4 9.4 9.4 0 0 0-1.4-3.4 3 3 0 0 0-1.4 1.8 17.3 17.3 0 0 0-.8 2.7 29.3 29.3 0 0 1-.5 2.9c-.2 1-.9 1.7-.9 2.3v7.6c0 2.9-.2 5.7-.1 8.4a77.2 77.2 0 0 0 .6 8.2c0 .1.1.2.4.3l.8.6.8.7a1.3 1.3 0 0 1 .3.7c0 .2-.2.5-.8.8a7.5 7.5 0 0 1-1.8.8 18.9 18.9 0 0 1-2.1.9l-1.2.4h-.2l-4.8-2.6a.4.4 0 0 1-.2-.5v-.6a29.9 29.9 0 0 1 0-3 28.1 28.1 0 0 0 .1-3 23.4 23.4 0 0 0-.3-3.8l-.6-3.8-.6-3.7c-.1-1.3-.2-2.6-.2-4s0-2.3.1-3.3l.3-2.8.6-2.8c.2-1 .4-2 .6-3.2a.8.8 0 0 0 0-.7 2.8 2.8 0 0 1-.1-.8 5.8 5.8 0 0 0-1.9.3l-1.9.5-1.9.6-1.9.5-1.4.2h-1.1c-.3.1-.6-.1-1-.1h-2.9a44.7 44.7 0 0 1-5.2-.1 46.4 46.4 0 0 0-5.3-.1h-2.5a4 4 0 0 0-2.3.8v5.2c0 1.8-.1 3.5-.2 5.2s-.2 3.4-.2 5.1-.2 3.4-.2 5.2v5.1c0 .6.7 1.1 1.1 1.7a20.9 20.9 0 0 1 1.4 1.7l1.3 1.8a4.1 4.1 0 0 1 .5 1.8v.2c-.1.1-.1.1-.1.2a10.5 10.5 0 0 1-4 .4c.1.4 0 .7-.3.8h-2.7a9.1 9.1 0 0 1-2.3-.3 3.7 3.7 0 0 1-1.8-.8 2.4 2.4 0 0 1-.8-1.9 6.9 6.9 0 0 1 .2-1.3l.3-1.3.3-1.3a6.6 6.6 0 0 0 .1-1.4 23.6 23.6 0 0 0-.2-3.8c-.2-1.3-.4-2.5-.7-3.7s-.5-2.6-.8-3.8a19.3 19.3 0 0 1-.7-4h-.5c-.2 0-.3.8-.5.9a2.5 2.5 0 0 1-.4.7l-.3.6c-.5.7-1 1.5-1.6 2.2l-1.4 2.3a11.2 11.2 0 0 0-1.1 2.5 7.7 7.7 0 0 0-.4 2.7 4.5 4.5 0 0 0 .3 1.6l.7 1.5a6.2 6.2 0 0 0 .8 1.2 1.5 1.5 0 0 1 .3.6.8.8 0 0 1-.4.7l-1 .5-1.4.2h-4.3l-1.1-.4a2.2 2.2 0 0 1-.7-.9 9.1 9.1 0 0 1-.6-1.6 9.8 9.8 0 0 0-.5-1.6 4.7 4.7 0 0 1-.3-1.7 3.7 3.7 0 0 1 .5-1.5c.2-.5.6-1 .9-1.6l1.1-1.6.8-1.4c.8-2 1.7-4 2.5-5.9l2.4-6 .5-.7.5-.7a3.5 3.5 0 0 0 .5-.8 1.9 1.9 0 0 0 .2-.8c0-.4-.2-.6-.4-.6h-1.3l-9 2.4a3.2 3.2 0 0 1-1.3.5l-1.8.4-1.6.6a1.2 1.2 0 0 0-.7 1.1 1.6 1.6 0 0 0 .3.9l.7.6.8.6.7.6-.4.4-1.2-.8-1.5-.8-1.5-.7-1.5-.2a17.3 17.3 0 0 0-3.8.5l-4 1.2-4.1 1.1a15.1 15.1 0 0 1-4.2.5 18.5 18.5 0 0 1-3.5-.4 37 37 0 0 1-4.9-1.1l-5.5-1.8a32.8 32.8 0 0 1-5-2.2 18.6 18.6 0 0 1-3.7-2.7 4.6 4.6 0 0 1-1.4-3 4.9 4.9 0 0 1 1.1-3.3 7.1 7.1 0 0 1 2.8-1.6c1.1-.4 2.2-.1 3.5-.2s2.3.4 3.3.4h4c.2 0 .6-.4 1.3-.3a23.2 23.2 0 0 1 2.4.2 21.3 21.3 0 0 1 2.5.3l2 .2a7.6 7.6 0 0 1 2 .6l1.7.8 1.9.8a6.4 6.4 0 0 0 2 .3 8.8 8.8 0 0 0 4-1 35.4 35.4 0 0 0 4.1-2.6l4-3.1 3.2-2.8 1.9-1.2 1.9-1.1 1.7-1.3a8.6 8.6 0 0 0 1.5-1.7 33 33 0 0 0 2.6-4.5 33.5 33.5 0 0 1 2.7-4.5 8.6 8.6 0 0 1 1.4-1.3l1.5-1 1.6-.9a14 14 0 0 0 1.7-.9l3.6-2.6 3.4-3 3.4-3 3.5-2.9a23.6 23.6 0 0 1 3.8-2.2l3.9-1.8 2.5-1.3 2.5-1.3a15.1 15.1 0 0 1 2.6-1.2 13.4 13.4 0 0 1 2.7-.7l22.5-3.3a11.8 11.8 0 0 0 3.5-1.1 32.6 32.6 0 0 0 3.4-2.2l3.2-2.9 2.9-3.3 2.7-3.2 2.3-2.9 7.7-9 .4-.2.5-.6.5-.5.3-.3 2.1-3.3h.2l.4-.3.4-.2.2-.2.4-.4.4-.4 1.2-1.7a24.3 24.3 0 0 0 1.4-2l1.3-2a10.6 10.6 0 0 0 1-1.7l.9-2c.2-.7.4-1.4.7-2.2s.5-1.4.7-2.2 1-1.4 1-2.2v-6.2a4.7 4.7 0 0 0-1.1-3.1 10.7 10.7 0 0 0-2.6-2.6 11.1 11.1 0 0 0-3.4-1.8 8.4 8.4 0 0 0-3.2-.7 22 22 0 0 0-5.8.7 12.2 12.2 0 0 0-5.2 2.6 18.4 18.4 0 0 0-1.4 1.4l-1.7 1.9c-.5.7-1.1 1.3-1.7 2l-1.9 1.9a10.2 10.2 0 0 1-1.8 1.3 4.1 4.1 0 0 1-1.8.5 1.8 1.8 0 0 1-1.2-.5 1.6 1.6 0 0 1-.5-1.1v-.4a4.3 4.3 0 0 0 .1-.5 2.4 2.4 0 0 0 .2-.8c.1-.3.1-.5.2-.8V63a7.9 7.9 0 0 0-.2-1.7l-.6-1.4a6.7 6.7 0 0 1-.6-1.2 2.7 2.7 0 0 1-.3-1.2 1.2 1.2 0 0 0 .9-.3l.4-.6.5-.8a1.8 1.8 0 0 1 .8-.6h2.8a1.3 1.3 0 0 0 1-.4c.1-.3.4-.4.7-.7h.4l.2.3c.1.2.1.4.2.5a.4.4 0 0 1 .4-.4l.6-.4 1.1-.6 1.4-.8 1.4-.8 1.1-.7.5-.4 2.1-1.3a6.4 6.4 0 0 1 1.8-.6l1.9-.2h6.5a4.7 4.7 0 0 0 1.5.6l1.5.3 1.6.3 1.6.5a16.1 16.1 0 0 1 4.5 3 18.2 18.2 0 0 1 5 9.3 25.6 25.6 0 0 1 .5 5.5v1.5a2.1 2.1 0 0 0 0 .7z"/></symbol></svg>